PathFileType	4	(X/Y/Z)	Patient4_TMGait_0pt6_01_right_21.trc.trc
DataRate	CameraRate	NumFrames	NumMarkers	Units	OrigDataRate	OrigDataStartFrame	OrigNumFrames
81.871345029240	81.871345029240	4	33	mm	81.871345029240	71	       141
Frame#	Time	Sacral			L.Shoulder			Chest			R.Shoulder			Neck			R.ASIS			L.ASIS			R.Thigh.Superior			R.Thigh.Lateral			R.Thigh.Inferior			R.Patella			L.Thigh.Superior			L.Thigh.Lateral			L.Thigh.Inferior			L.Patella			L.Shank.Superior			L.Shank.Lateral			L.Shank.Inferior			R.Shank.Superior			R.Shank.Lateral			R.Shank.Inferior			R.Heel			R.Midfoot.Superior			R.Midfoot.Lateral			R.Toe			L.Heel			L.Midfoot.Lateral			L.Midfoot.Superior			L.Toe			L.Elbow			L.Wrist			R.Elbow			R.Wrist			
		X1	Y1	Z1	X2	Y2	Z2	X3	Y3	Z3	X4	Y4	Z4	X5	Y5	Z5	X6	Y6	Z6	X7	Y7	Z7	X8	Y8	Z8	X9	Y9	Z9	X10	Y10	Z10	X11	Y11	Z11	X12	Y12	Z12	X13	Y13	Z13	X14	Y14	Z14	X15	Y15	Z15	X16	Y16	Z16	X17	Y17	Z17	X18	Y18	Z18	X19	Y19	Z19	X20	Y20	Z20	X21	Y21	Z21	X22	Y22	Z22	X23	Y23	Z23	X24	Y24	Z24	X25	Y25	Z25	X26	Y26	Z26	X27	Y27	Z27	X28	Y28	Z28	X29	Y29	Z29	X30	Y30	Z30	X31	Y31	Z31	X32	Y32	Z32	X33	Y33	Z33	

71	25.795000000000	692.647257913859	1005.262167872229	530.308955362021	847.706449767466	1431.569143349873	335.498738050697	970.806259058704	1361.604086021624	481.059011947660	909.392281928996	1434.093541486210	663.386979999646	846.251825601854	1488.521172366866	489.792523368371	923.785779939673	934.279890899763	626.183083838169	889.602458671588	956.349836773410	353.456603151037	917.623238373123	720.290621938046	599.389940153544	812.567903929561	628.330028088600	662.235744068370	870.069173889885	562.005000716802	580.529536896991	849.231513091200	477.634539842862	584.019675533684	966.086856139003	768.437688390821	387.556530197611	910.691896238334	638.546619825840	318.018206362638	1013.785412710324	581.329389837099	379.300661406410	1035.421811541896	515.646161020569	381.593174314905	1022.238526819746	442.834860127429	372.759040171029	959.323662958313	310.410024802957	326.446002625302	1047.243033696561	215.502462770090	385.839907896644	810.444873788983	394.501608947115	590.440845660946	726.332450316724	300.412246354524	651.174831048553	754.331544331147	201.855862641203	585.940307104909	603.621963707316	44.240496584821	552.084744168195	774.717123394953	95.996500380007	592.452760090489	684.679120313229	36.399418929407	627.959200843132	893.400093900663	40.267587534423	623.411986201866	965.890565502157	39.677530865813	430.770799243367	1037.454210581110	43.113411206291	348.436634707438	1110.010908685630	117.624636209250	367.241640368596	1242.398741918008	84.944301998636	337.616898686816	728.972951443094	1093.436147799680	243.132317188542	702.414544148947	835.621882214378	264.016436263915	1052.521702781564	1127.126748387216	780.542826618401	1288.923755775019	1205.336082630774	740.931541560361	
72	25.807214285714	694.030562729836	1003.642502315153	527.838608005406	847.386189146742	1430.230255374235	333.277949710677	970.293392232012	1361.109457816752	479.386196588425	907.714746504522	1433.124058970250	661.549977413622	845.240917033211	1487.351817737936	487.749503175265	924.948439150701	933.140468744557	625.167604671022	892.066428220584	954.786182309329	352.259878674301	918.092137094598	718.831913059627	598.757642623915	811.977394848509	627.415920940281	661.060504357899	869.457765905663	560.494788039972	579.759116642183	847.753114772597	475.732831206405	582.940666007011	968.165517500542	765.782782958500	386.825353861449	911.186491661059	636.351106711976	317.879679550646	1013.750844634844	578.573627654658	379.628134354380	1033.561252824090	511.877580449958	382.598993466025	1019.763214854602	438.989745875068	373.547459039126	954.808912176951	307.634567933251	326.863509850081	1040.459151003022	211.262713459278	387.200888865530	807.783713528459	393.171946706772	589.511439978997	722.330525196861	300.361630681398	650.518664777683	748.776987961928	201.319223632684	585.514989652775	596.305153234694	44.746904080278	552.195948808524	767.563095813201	96.058171324727	592.476177316496	677.388758166187	36.599436500476	627.984659705577	886.082572187886	39.990885745191	623.547022258611	954.710207073919	38.316746453880	431.744042249981	1026.281902793160	40.275368322484	349.305884491773	1101.231453138604	112.016221557717	369.007765176964	1232.826018548825	75.160455386433	338.922080912823	729.229683946755	1092.009477662041	240.977515274989	703.674324574797	834.047537233510	261.612250288012	1051.074768757637	1125.441182790964	777.761843121311	1287.755276658747	1203.743224182373	739.583384361974	
73	25.819428571429	695.401659660591	1002.146524647589	525.332759121574	847.139311907475	1428.908227580081	330.913047499977	969.833509655681	1360.728759344530	477.623944105773	906.071711169690	1432.317555155609	659.617159153889	844.322160910043	1486.308860291342	485.539303190238	926.157645374551	932.038062901350	624.083565406155	894.500590055116	953.499640638422	351.062546940983	918.878230834221	717.472279468802	597.897786045146	811.893442023383	626.476554040113	659.673268165260	869.426097331221	559.037747496820	578.744414861000	846.953786996017	473.698006208876	581.682287211483	970.178060663168	763.397058363468	386.210935679942	911.984089967377	634.668367135555	317.432049570292	1013.739762960422	576.220808076343	380.042506736911	1031.869247293536	508.617545052654	383.451822233424	1017.535331928554	435.668367704308	374.087928435102	950.831875279947	305.320370431347	326.855378856883	1034.196328919370	207.618582857066	388.247845411204	805.626431073746	391.791188534289	588.429442468797	718.713945638943	300.424148229912	649.768184602507	743.442821630739	200.865541669916	585.044412867105	589.025295822639	45.571528787559	552.340043021991	760.533030323092	96.190811870979	592.522547565315	670.145695738016	36.956000470200	628.033322738085	878.806581751240	39.680580102209	623.680382980037	944.216177196185	37.366231634922	432.346697280118	1015.854621237498	38.036713142875	349.869557338728	1092.929229644028	107.212686641603	370.510996358738	1223.782249148358	66.585531972671	340.115863040098	730.238002081913	1090.283940512172	238.635562310538	705.999207447247	832.150364846710	258.796574527371	1048.798303338566	1123.421170970322	775.106680913877	1286.128785405087	1200.828844366443	738.429947804855	
74	25.831642857143	696.712906035170	1000.863232733877	522.829636590688	846.961339364309	1427.694622592364	328.447258665998	969.440347914113	1360.504203618682	475.778448558960	904.543545921055	1431.743224316857	657.601141567444	843.527598455145	1485.468879011896	483.196900747056	927.367942812454	931.059595467449	622.881464628918	896.796553828649	952.583294384311	349.809981292548	919.938655103980	716.299383762754	596.765944469915	812.332426349507	625.567987070961	658.079047144180	870.014300463424	557.700462739940	577.497814837892	846.918495171441	471.571471618656	580.322741017726	972.057796599563	761.465103232942	385.644504055021	913.069936565886	633.578508946309	316.664870521640	1013.789848115804	574.406485940046	380.424300291764	1030.441661967340	506.016554090888	384.054810892578	1015.638470110523	432.988183309121	374.347761845116	947.482002351032	303.572697172492	326.436791984518	1028.553641097062	204.689077307795	388.964842752457	804.022821938204	390.417301297246	587.254955712102	715.507622549943	300.682673755397	648.952181712645	738.376084567587	200.572092362499	584.573934758658	581.811532827516	46.838120776859	552.524231955141	753.681565432905	96.411546766474	592.617191247529	662.967919981544	37.524056884473	628.102860743079	871.580861601194	39.340217642255	623.805545266684	934.618022556887	36.822398443438	432.646241753930	1006.349288696030	36.437429716049	350.166111479447	1085.204429194920	103.382923969381	371.700993185501	1215.391586707761	59.563258937518	341.105701680751	732.049930865597	1088.343343423408	236.133608131706	709.408293634006	830.019829604479	255.595586196289	1045.686756299450	1121.133251591610	772.592789035892	1284.030140150901	1196.572344031112	737.471551955502	
